<svg width="350" height="350" viewBox="0 0 350 350" fill="none" xmlns="http://www.w3.org/2000/svg">
<path d="M78.4 162.617L80.99 167.874C81.0573 168.008 81.1562 168.123 81.2782 168.209C81.4002 168.296 81.5416 168.352 81.69 168.371L87.486 169.211C87.6544 169.235 87.8126 169.306 87.9427 169.416C88.0728 169.525 88.1696 169.669 88.2221 169.831C88.2746 169.993 88.2806 170.166 88.2396 170.331C88.1986 170.496 88.1121 170.647 87.99 170.765L83.79 174.853C83.6834 174.955 83.6039 175.082 83.5586 175.223C83.5134 175.363 83.5039 175.513 83.531 175.658L84.518 181.433C84.546 181.6 84.5271 181.771 84.4632 181.928C84.3994 182.084 84.2932 182.22 84.1565 182.319C84.0199 182.419 83.8582 182.479 83.6896 182.491C83.521 182.504 83.3521 182.47 83.202 182.392L78.015 179.669C77.8844 179.6 77.739 179.564 77.5915 179.564C77.4439 179.564 77.2986 179.6 77.168 179.669L71.981 182.392C71.8308 182.47 71.662 182.504 71.4934 182.491C71.3248 182.479 71.1631 182.419 71.0264 182.319C70.8898 182.22 70.7836 182.084 70.7197 181.928C70.6559 181.771 70.6369 181.6 70.665 181.433L71.652 175.658C71.676 175.513 71.665 175.364 71.62 175.224C71.5749 175.084 71.4971 174.957 71.393 174.853L67.193 170.765C67.0709 170.647 66.9844 170.496 66.9434 170.331C66.9023 170.166 66.9084 169.993 66.9609 169.831C67.0134 169.669 67.1102 169.525 67.2403 169.416C67.3704 169.306 67.5286 169.235 67.697 169.211L73.5 168.371C73.6486 168.352 73.7902 168.297 73.9123 168.21C74.0344 168.124 74.1332 168.008 74.2 167.874L76.797 162.617C76.8748 162.472 76.9905 162.351 77.1316 162.267C77.2727 162.182 77.4341 162.138 77.5985 162.138C77.7629 162.138 77.9242 162.182 78.0654 162.267C78.2065 162.351 78.3221 162.472 78.4 162.617Z" fill="#E0E0E0"/>
<path d="M54.6559 132.251L56.4479 135.884C56.4919 135.977 56.5586 136.057 56.6418 136.117C56.725 136.177 56.8221 136.215 56.9239 136.227L60.9349 136.815C61.0505 136.832 61.1591 136.881 61.2484 136.957C61.3378 137.032 61.4043 137.131 61.4407 137.242C61.477 137.354 61.4817 137.473 61.4541 137.586C61.4266 137.7 61.368 137.804 61.2849 137.886L58.3799 140.686C58.3067 140.758 58.252 140.846 58.2203 140.944C58.1886 141.041 58.1809 141.145 58.1979 141.246L58.8979 145.236C58.9174 145.351 58.9044 145.47 58.8603 145.578C58.8163 145.687 58.7429 145.781 58.6484 145.85C58.5539 145.919 58.4421 145.96 58.3254 145.969C58.2087 145.978 58.0919 145.955 57.9879 145.901L54.3969 144.018C54.3064 143.97 54.2054 143.944 54.1029 143.944C54.0003 143.944 53.8993 143.97 53.8089 144.018L50.2249 145.901C50.1207 145.957 50.0029 145.982 49.8851 145.974C49.7673 145.966 49.6541 145.925 49.5585 145.855C49.4629 145.786 49.3887 145.691 49.3444 145.582C49.3 145.472 49.2874 145.352 49.3079 145.236L50.0079 141.246C50.0267 141.145 50.0199 141.041 49.9881 140.943C49.9563 140.845 49.9005 140.757 49.8259 140.686L46.8999 137.9C46.8167 137.818 46.7581 137.714 46.7306 137.6C46.7031 137.487 46.7077 137.368 46.7441 137.256C46.7804 137.145 46.8469 137.046 46.9363 136.971C47.0256 136.895 47.1342 136.846 47.2499 136.829L51.2609 136.241C51.3614 136.227 51.457 136.189 51.5389 136.129C51.6208 136.069 51.6864 135.99 51.7299 135.898L53.5289 132.265C53.5799 132.16 53.6592 132.071 53.758 132.008C53.8567 131.945 53.971 131.911 54.088 131.91C54.205 131.908 54.3201 131.939 54.4204 132C54.5207 132.06 54.6023 132.147 54.6559 132.251Z" fill="#E0E0E0"/>
<path d="M184.436 38.3392L185.675 40.8592C185.707 40.922 185.754 40.9762 185.811 41.0176C185.868 41.059 185.934 41.0862 186.004 41.0972L188.804 41.4962C188.885 41.5084 188.961 41.5428 189.023 41.5956C189.085 41.6484 189.132 41.7175 189.157 41.7952C189.183 41.8728 189.186 41.9561 189.167 42.0355C189.148 42.115 189.107 42.1876 189.049 42.2452L187.033 44.2052C186.983 44.255 186.947 44.316 186.926 44.383C186.905 44.4501 186.901 44.5212 186.914 44.5902L187.383 47.3902C187.398 47.4704 187.39 47.5531 187.359 47.6289C187.329 47.7047 187.278 47.7704 187.213 47.8186C187.147 47.8669 187.069 47.8956 186.988 47.9015C186.906 47.9074 186.825 47.8904 186.753 47.8522L184.268 46.5432C184.205 46.5123 184.135 46.4962 184.065 46.4962C183.995 46.4962 183.925 46.5123 183.862 46.5432L181.377 47.8522C181.304 47.8894 181.223 47.9059 181.142 47.8996C181.06 47.8934 180.982 47.8648 180.916 47.8169C180.85 47.7691 180.799 47.7038 180.768 47.6285C180.737 47.5532 180.727 47.4707 180.74 47.3902L181.216 44.5902C181.229 44.5206 181.224 44.4488 181.202 44.3815C181.18 44.3142 181.142 44.2535 181.09 44.2052L179.081 42.2452C179.023 42.188 178.982 42.116 178.963 42.0371C178.943 41.9581 178.946 41.8753 178.97 41.7977C178.995 41.7202 179.041 41.651 179.102 41.5978C179.164 41.5446 179.239 41.5094 179.319 41.4962L182.119 41.0972C182.188 41.0863 182.253 41.059 182.309 41.0175C182.365 40.9761 182.41 40.9218 182.441 40.8592L183.687 38.3392C183.725 38.2738 183.78 38.2196 183.846 38.182C183.911 38.1443 183.986 38.1245 184.061 38.1245C184.137 38.1245 184.212 38.1443 184.277 38.182C184.343 38.2196 184.398 38.2738 184.436 38.3392Z" fill="#E0E0E0"/>
<path d="M292.964 168.189L294.21 170.702C294.24 170.767 294.286 170.824 294.343 170.867C294.401 170.909 294.468 170.937 294.539 170.947L297.339 171.346C297.419 171.358 297.495 171.392 297.556 171.444C297.618 171.497 297.664 171.566 297.689 171.643C297.714 171.72 297.716 171.803 297.697 171.881C297.677 171.96 297.635 172.032 297.577 172.088L295.568 174.055C295.517 174.104 295.478 174.164 295.456 174.232C295.434 174.299 295.429 174.37 295.442 174.44L295.918 177.24C295.931 177.321 295.921 177.403 295.89 177.478C295.859 177.554 295.807 177.619 295.741 177.667C295.675 177.715 295.597 177.743 295.516 177.749C295.435 177.756 295.353 177.739 295.281 177.702L292.796 176.393C292.733 176.362 292.663 176.346 292.593 176.346C292.523 176.346 292.453 176.362 292.39 176.393L289.905 177.702C289.833 177.74 289.751 177.757 289.67 177.751C289.589 177.745 289.511 177.717 289.445 177.668C289.379 177.62 289.328 177.555 289.298 177.479C289.268 177.403 289.26 177.32 289.275 177.24L289.751 174.44C289.762 174.37 289.756 174.299 289.734 174.232C289.712 174.166 289.675 174.105 289.625 174.055L287.609 172.088C287.55 172.031 287.509 171.959 287.489 171.88C287.47 171.801 287.473 171.718 287.499 171.64C287.524 171.563 287.571 171.494 287.634 171.442C287.697 171.39 287.773 171.357 287.854 171.346L290.654 170.947C290.724 170.936 290.791 170.908 290.849 170.865C290.906 170.822 290.952 170.766 290.983 170.702L292.222 168.189C292.261 168.125 292.315 168.073 292.38 168.036C292.445 167.999 292.518 167.98 292.593 167.98C292.667 167.98 292.741 167.999 292.806 168.036C292.871 168.073 292.925 168.125 292.964 168.189Z" fill="#E0E0E0"/>
<path d="M264.229 156.583L266.28 160.741C266.33 160.846 266.406 160.937 266.5 161.005C266.594 161.074 266.704 161.118 266.819 161.133L271.404 161.798C271.541 161.81 271.671 161.862 271.778 161.948C271.886 162.033 271.966 162.148 272.009 162.279C272.051 162.409 272.054 162.55 272.018 162.682C271.981 162.814 271.906 162.933 271.803 163.023L268.485 166.257C268.402 166.339 268.34 166.44 268.304 166.551C268.267 166.661 268.257 166.779 268.275 166.894L269.059 171.465C269.09 171.599 269.08 171.739 269.032 171.867C268.984 171.996 268.898 172.107 268.787 172.188C268.676 172.269 268.544 172.315 268.407 172.321C268.269 172.326 268.134 172.292 268.016 172.221L263.9 170.1C263.798 170.045 263.683 170.016 263.567 170.016C263.451 170.016 263.337 170.045 263.235 170.1L259.147 172.2C259.029 172.271 258.893 172.305 258.756 172.3C258.619 172.294 258.487 172.248 258.375 172.167C258.264 172.086 258.179 171.975 258.131 171.846C258.083 171.718 258.073 171.578 258.104 171.444L258.888 166.873C258.905 166.758 258.895 166.64 258.859 166.53C258.822 166.419 258.76 166.318 258.678 166.236L255.36 163.002C255.256 162.912 255.182 162.793 255.145 162.661C255.109 162.529 255.112 162.388 255.154 162.258C255.197 162.127 255.277 162.012 255.384 161.927C255.492 161.841 255.622 161.789 255.759 161.777L260.344 161.112C260.459 161.097 260.569 161.053 260.663 160.984C260.757 160.916 260.833 160.825 260.883 160.72L262.934 156.562C262.989 156.435 263.08 156.326 263.197 156.251C263.313 156.175 263.45 156.136 263.588 156.139C263.727 156.141 263.862 156.184 263.976 156.263C264.09 156.343 264.178 156.454 264.229 156.583Z" fill="#E0E0E0"/>
<path d="M55.188 207.354L56.7 210.35C56.7378 210.426 56.7931 210.491 56.8613 210.541C56.9294 210.591 57.0085 210.624 57.092 210.637L60.396 211.113C60.4918 211.128 60.5818 211.168 60.6559 211.231C60.7301 211.294 60.7854 211.375 60.8159 211.467C60.8463 211.559 60.8507 211.658 60.8284 211.753C60.8062 211.847 60.7583 211.933 60.69 212.002L58.296 214.333C58.2345 214.39 58.1882 214.462 58.1613 214.541C58.1344 214.621 58.1277 214.705 58.142 214.788L58.709 218.085C58.7259 218.181 58.7155 218.28 58.6789 218.37C58.6423 218.46 58.581 218.538 58.5021 218.595C58.4232 218.652 58.3299 218.686 58.2327 218.692C58.1356 218.699 58.0386 218.677 57.953 218.631L54.999 217.077C54.9242 217.039 54.8414 217.019 54.7575 217.019C54.6735 217.019 54.5908 217.039 54.516 217.077L51.555 218.631C51.4698 218.678 51.3729 218.7 51.2756 218.694C51.1784 218.688 51.085 218.655 51.0063 218.597C50.9275 218.54 50.8669 218.461 50.8314 218.37C50.7959 218.28 50.7871 218.181 50.806 218.085L51.366 214.788C51.3831 214.706 51.3785 214.621 51.3527 214.541C51.3269 214.461 51.2808 214.39 51.219 214.333L48.825 212.002C48.7541 211.935 48.7037 211.849 48.6796 211.754C48.6555 211.66 48.6586 211.56 48.6886 211.467C48.7186 211.374 48.7743 211.292 48.8492 211.229C48.9241 211.166 49.0152 211.126 49.112 211.113L52.423 210.637C52.5064 210.624 52.5855 210.591 52.6536 210.541C52.7218 210.491 52.7771 210.426 52.815 210.35L54.292 207.354C54.3375 207.276 54.4029 207.211 54.4815 207.165C54.5601 207.12 54.6492 207.096 54.74 207.096C54.8307 207.096 54.9198 207.12 54.9984 207.165C55.0771 207.211 55.1424 207.276 55.188 207.354Z" fill="#E0E0E0"/>
<path d="M125.837 41.1626L117.801 41.2429L118.2 81.2269L126.236 81.1466L125.837 41.1626Z" fill="#E0E0E0"/>
<path d="M68.8117 41.851L48.001 41.9636L48.1204 64.0343L68.9311 63.9217L68.8117 41.851Z" fill="#EBEBEB"/>
<path d="M89.7099 41.3285L68.8989 41.5366L69.1196 63.6076L89.9306 63.3995L89.7099 41.3285Z" fill="#F5F5F5"/>
<path d="M48.027 48.0622C61.852 48.1742 75.719 48.0622 89.544 47.8662C89.5957 47.8569 89.6426 47.8298 89.6763 47.7894C89.71 47.7491 89.7285 47.6982 89.7285 47.6457C89.7285 47.5931 89.71 47.5422 89.6763 47.5019C89.6426 47.4616 89.5957 47.4344 89.544 47.4252C75.719 47.3482 61.859 47.4252 48.034 47.6842C47.9838 47.6842 47.9358 47.7041 47.9003 47.7395C47.8649 47.775 47.845 47.8231 47.845 47.8732C47.845 47.9233 47.8649 47.9714 47.9003 48.0068C47.9358 48.0423 47.9838 48.0622 48.034 48.0622H48.027Z" fill="#E0E0E0"/>
<path d="M72.8353 63.5498L35.0288 63.7544L35.1261 81.7441L72.9326 81.5396L72.8353 63.5498Z" fill="#EBEBEB"/>
<path d="M110.459 63.3462L72.6521 63.5508L72.7494 81.5405L110.556 81.336L110.459 63.3462Z" fill="#F5F5F5"/>
<path d="M35.049 68.7611C60.158 69.0481 85.365 68.7611 110.474 68.3901C110.526 68.3808 110.573 68.3537 110.606 68.3133C110.64 68.273 110.659 68.2221 110.659 68.1696C110.659 68.117 110.64 68.0661 110.606 68.0258C110.573 67.9855 110.526 67.9583 110.474 67.9491C85.358 67.8161 60.158 67.8301 35.042 68.3831C34.9919 68.3831 34.9438 68.403 34.9084 68.4384C34.8729 68.4739 34.853 68.5219 34.853 68.5721C34.853 68.6222 34.8729 68.6703 34.9084 68.7057C34.9438 68.7412 34.9919 68.7611 35.042 68.7611H35.049Z" fill="#E0E0E0"/>
<path d="M167.37 81.7461H20.9089V88.1931H167.37V81.7461Z" fill="#E0E0E0"/>
<path d="M50.8339 84.8472H44.8909V106.834H50.8339V84.8472Z" fill="#E0E0E0"/>
<path d="M139.587 84.8472H133.644V106.834H139.587V84.8472Z" fill="#E0E0E0"/>
<path d="M133.611 26.2158L125.575 26.2961L126.125 81.2881L134.161 81.2078L133.611 26.2158Z" fill="#EBEBEB"/>
<path d="M146.037 37.0648L133.549 37.1323L133.79 81.6937L146.278 81.6261L146.037 37.0648Z" fill="#F5F5F5"/>
<path d="M145.95 45.6611C145.95 45.7801 143.15 45.8781 139.706 45.8781C136.262 45.8781 133.462 45.7801 133.462 45.6611C133.462 45.5421 136.262 45.4441 139.706 45.4441C143.15 45.4441 145.95 45.5421 145.95 45.6611Z" fill="#E0E0E0"/>
<path d="M145.95 43.7852C145.95 43.9112 143.15 44.0022 139.706 44.0022C136.262 44.0022 133.462 43.9112 133.462 43.7852C133.462 43.6592 136.262 43.5752 139.706 43.5752C143.15 43.5752 145.95 43.6662 145.95 43.7852Z" fill="#E0E0E0"/>
<path d="M145.95 74.935C145.95 75.054 143.15 75.152 139.706 75.152C136.262 75.152 133.462 75.054 133.462 74.935C133.462 74.816 136.262 74.718 139.706 74.718C143.15 74.718 145.95 74.816 145.95 74.935Z" fill="#E0E0E0"/>
<path d="M145.95 73.059C145.95 73.178 143.15 73.276 139.706 73.276C136.262 73.276 133.462 73.178 133.462 73.059C133.462 72.94 136.262 72.842 139.706 72.842C143.15 72.842 145.95 72.94 145.95 73.059Z" fill="#E0E0E0"/>
<path d="M139.909 68.978C139.79 68.978 139.692 64.477 139.692 58.933C139.692 53.389 139.79 48.895 139.909 48.895C140.028 48.895 140.126 53.389 140.126 58.933C140.126 64.477 140 68.978 139.909 68.978Z" fill="#E0E0E0"/>
<path d="M159.67 48.02H146.083V81.655H159.67V48.02Z" fill="#EBEBEB"/>
<path d="M131.649 36.225C131.649 36.6822 131.513 37.1291 131.259 37.5091C131.005 37.8892 130.644 38.1852 130.221 38.3599C129.799 38.5345 129.334 38.5798 128.886 38.4901C128.438 38.4004 128.026 38.1797 127.703 37.856C127.38 37.5322 127.161 37.12 127.073 36.6714C126.984 36.2228 127.031 35.7582 127.207 35.3362C127.383 34.9142 127.68 34.5539 128.061 34.3009C128.442 34.048 128.889 33.9137 129.346 33.915C129.649 33.915 129.949 33.9748 130.229 34.091C130.509 34.2072 130.763 34.3775 130.977 34.5921C131.191 34.8067 131.36 35.0614 131.476 35.3416C131.591 35.6218 131.65 35.922 131.649 36.225Z" fill="#E0E0E0"/>
<path d="M130.06 42.5811H128.632V75.2921H130.06V42.5811Z" fill="#E0E0E0"/>
<path d="M320.971 54.187H222.173V142.576H320.971V54.187Z" fill="#FAFAFA"/>
<path d="M320.971 142.576C320.971 142.576 320.971 142.009 320.971 140.938C320.971 139.867 320.971 138.264 320.971 136.199C320.971 132.048 320.971 125.986 320.915 118.258C320.915 102.816 320.845 80.7451 320.803 54.1871L321.027 54.4111H222.236L222.495 54.1521C222.495 86.3101 222.495 116.571 222.495 142.541L222.264 142.31L293.72 142.429L313.873 142.485H319.207H320.607H321.083H320.635H319.284H313.992L293.888 142.541L222.173 142.8H221.935V142.569C221.935 116.599 221.935 86.3381 221.935 54.1801V53.9001H222.208L320.999 53.9421H321.223V54.1661C321.174 80.7661 321.132 102.9 321.104 118.377C321.104 126.077 321.062 132.132 321.048 136.269C321.048 138.322 321.048 139.888 321.048 140.966C320.985 142.044 320.971 142.576 320.971 142.576Z" fill="#E0E0E0"/>
<path d="M260.05 69.8881C260.05 70.0351 254.849 70.1542 248.437 70.1542C242.025 70.1542 236.824 70.0351 236.824 69.8881C236.824 69.7411 242.025 69.6292 248.437 69.6292C254.849 69.6292 260.05 69.7481 260.05 69.8881Z" fill="#E0E0E0"/>
<path d="M301.917 76.5241C301.917 76.6711 287.63 76.7901 270.011 76.7901C252.392 76.7901 238.098 76.6711 238.098 76.5241C238.098 76.3771 252.385 76.2651 270.011 76.2651C287.637 76.2651 301.917 76.3841 301.917 76.5241Z" fill="#E0E0E0"/>
<path d="M241.157 87.7732H236.992V91.9382H241.157V87.7732Z" fill="#E0E0E0"/>
<path d="M251.405 87.7732H247.24V91.9382H251.405V87.7732Z" fill="#E0E0E0"/>
<path d="M261.842 87.5842H257.677V91.7492H261.842V87.5842Z" fill="#E0E0E0"/>
<path d="M271.894 87.7732H267.729V91.9382H271.894V87.7732Z" fill="#E0E0E0"/>
<path d="M282.142 87.7732H277.977V91.9382H282.142V87.7732Z" fill="#E0E0E0"/>
<path d="M292.39 87.7732H288.225V91.9382H292.39V87.7732Z" fill="#E0E0E0"/>
<path d="M302.631 87.7732H298.466V91.9382H302.631V87.7732Z" fill="#EBEBEB"/>
<path d="M241.157 96.6211H236.992V100.786H241.157V96.6211Z" fill="#EBEBEB"/>
<path d="M251.405 96.6211H247.24V100.786H251.405V96.6211Z" fill="#E0E0E0"/>
<path d="M261.653 96.6211H257.488V100.786H261.653V96.6211Z" fill="#EBEBEB"/>
<path d="M271.894 96.6211H267.729V100.786H271.894V96.6211Z" fill="#E0E0E0"/>
<path d="M282.142 96.6211H277.977V100.786H282.142V96.6211Z" fill="#E0E0E0"/>
<path d="M292.579 96.4321H288.414V100.597H292.579V96.4321Z" fill="#E0E0E0"/>
<path d="M302.631 96.6211H298.466V100.786H302.631V96.6211Z" fill="#E0E0E0"/>
<path d="M241.157 105.469H236.992V109.634H241.157V105.469Z" fill="#E0E0E0"/>
<path d="M251.594 105.28H247.429V109.445H251.594V105.28Z" fill="#E0E0E0"/>
<path d="M261.653 105.469H257.488V109.634H261.653V105.469Z" fill="#E0E0E0"/>
<path d="M271.894 105.469H267.729V109.634H271.894V105.469Z" fill="#EBEBEB"/>
<path d="M282.142 105.469H277.977V109.634H282.142V105.469Z" fill="#E0E0E0"/>
<path d="M292.39 105.469H288.225V109.634H292.39V105.469Z" fill="#E0E0E0"/>
<path d="M302.631 105.469H298.466V109.634H302.631V105.469Z" fill="#E0E0E0"/>
<path d="M241.157 114.317H236.992V118.482H241.157V114.317Z" fill="#E0E0E0"/>
<path d="M251.405 114.317H247.24V118.482H251.405V114.317Z" fill="#E0E0E0"/>
<path d="M261.653 114.317H257.488V118.482H261.653V114.317Z" fill="#E0E0E0"/>
<path d="M272.083 114.128H267.918V118.293H272.083V114.128Z" fill="#E0E0E0"/>
<path d="M282.142 114.317H277.977V118.482H282.142V114.317Z" fill="#E0E0E0"/>
<path d="M292.39 114.317H288.225V118.482H292.39V114.317Z" fill="#EBEBEB"/>
<path d="M302.631 114.317H298.466V118.482H302.631V114.317Z" fill="#E0E0E0"/>
<path d="M241.157 123.165H236.992V127.33H241.157V123.165Z" fill="#E0E0E0"/>
<path d="M251.405 123.165H247.24V127.33H251.405V123.165Z" fill="#EBEBEB"/>
<path d="M261.653 123.165H257.488V127.33H261.653V123.165Z" fill="#E0E0E0"/>
<path d="M271.894 123.165H267.729V127.33H271.894V123.165Z" fill="#E0E0E0"/>
<path d="M282.142 123.165H277.977V127.33H282.142V123.165Z" fill="#E0E0E0"/>
<path d="M292.579 122.976H288.414V127.141H292.579V122.976Z" fill="#E0E0E0"/>
<path d="M302.631 123.165H298.466V127.33H302.631V123.165Z" fill="#E0E0E0"/>
<path d="M33.943 279.755V305.494H29.645V308.294H33.943V325.5H114.268V309.82H108.318V306.411H114.268V301.287H116.9V298.97H113.757V279.755H33.943Z" fill="#EBEBEB"/>
<path d="M92.939 279.825V325.227H114.268V309.547H108.318V306.425L114.268 306.53V301.406L116.963 301.413L116.914 298.767L113.771 298.683V279.755L92.939 279.825Z" fill="#E0E0E0"/>
<path d="M94.458 307.916C94.458 308.07 79.926 308.203 61.999 308.203C44.072 308.203 29.533 308.07 29.533 307.916C29.533 307.762 44.065 307.629 61.999 307.629C79.933 307.629 94.458 307.755 94.458 307.916Z" fill="#E0E0E0"/>
<path d="M94.458 305.298C94.458 305.459 79.926 305.585 61.999 305.585C44.072 305.585 29.533 305.459 29.533 305.298C29.533 305.137 44.065 305.018 61.999 305.018C79.933 305.018 94.458 305.144 94.458 305.298Z" fill="#E0E0E0"/>
<path d="M98.6298 298.263C98.6298 298.424 84.0908 298.55 66.1638 298.55C48.2368 298.55 33.7048 298.424 33.7048 298.263C33.7048 298.102 48.2368 297.976 66.1638 297.976C84.0908 297.976 98.6298 298.109 98.6298 298.263Z" fill="#E0E0E0"/>
<path d="M99.029 317.436C99.029 317.597 84.49 317.723 66.57 317.723C48.65 317.723 34.104 317.597 34.104 317.436C34.104 317.275 48.636 317.156 66.57 317.156C84.504 317.156 99.029 317.282 99.029 317.436Z" fill="#E0E0E0"/>
<path d="M44.366 236.866V261.261H40.292V263.9H44.366V280.224H120.491V265.377H114.891V262.143H120.491V257.292H122.997V255.087H120.022V236.887L44.366 236.866Z" fill="#F5F5F5"/>
<path d="M100.275 236.943V279.965H120.491V265.111H114.856V262.143L120.491 262.241V257.39L123.046 257.397L122.997 254.884L120.022 254.814V236.866L100.275 236.943Z" fill="#E0E0E0"/>
<path d="M101.717 263.557C101.717 263.711 87.941 263.83 70.952 263.83C53.963 263.83 40.187 263.711 40.187 263.557C40.187 263.403 53.956 263.291 70.987 263.291C88.018 263.291 101.717 263.41 101.717 263.557Z" fill="#E0E0E0"/>
<path d="M101.717 261.1C101.717 261.254 87.941 261.373 70.952 261.373C53.963 261.373 40.187 261.254 40.187 261.1C40.187 260.946 53.956 260.834 70.987 260.834C88.018 260.834 101.717 260.932 101.717 261.1Z" fill="#E0E0E0"/>
<path d="M105.7 254.415C105.7 254.562 91.9308 254.681 74.9418 254.681C57.9528 254.681 44.1418 254.562 44.1418 254.415C44.1418 254.268 57.9178 254.142 74.9418 254.142C91.9658 254.142 105.7 254.261 105.7 254.415Z" fill="#E0E0E0"/>
<path d="M106.05 272.587C106.05 272.734 92.274 272.853 75.285 272.853C58.296 272.853 44.52 272.734 44.52 272.587C44.52 272.44 58.289 272.314 75.285 272.314C92.281 272.314 106.05 272.433 106.05 272.587Z" fill="#E0E0E0"/>
<path d="M276.626 247.492C272.461 245.35 267.526 245.07 262.934 245.833C260.449 246.239 257.859 246.988 256.172 248.85C254.485 250.712 254.163 254.002 256.102 255.605C257.257 256.557 258.867 256.704 260.365 256.683C263.984 256.641 268.002 255.983 270.865 258.181C272.51 259.42 273.609 261.492 275.583 262.101C277.557 262.71 279.685 261.562 280.714 259.819C281.653 258.006 281.861 255.901 281.295 253.939C281.064 252.578 280.522 251.289 279.712 250.171C278.903 249.053 277.847 248.136 276.626 247.492Z" fill="#EBEBEB"/>
<path d="M286.16 229.082C283.619 232.715 278.67 231.511 276.36 229.292C274.05 227.073 273.098 223.86 272.216 220.787C270.193 213.787 268.163 206.43 269.661 199.29C270.021 197.127 270.971 195.104 272.405 193.445C273.91 191.863 276.213 190.918 278.32 191.478C280.819 192.136 282.366 194.579 283.486 196.903C286.789 203.767 288.52 211.28 288.554 218.897C288.554 222.439 288.148 226.156 286.146 229.082" fill="#EBEBEB"/>
<path d="M293.153 234.297C290.353 231.014 289.863 226.233 291.095 222.124C292.327 218.015 295.106 214.515 298.305 211.659C302.074 208.305 306.461 205.718 311.22 204.043C313.062 203.298 315.045 202.961 317.03 203.056C318.025 203.11 318.992 203.407 319.846 203.92C320.7 204.434 321.416 205.149 321.93 206.003C323.288 208.593 321.986 211.743 320.579 214.305C318.091 218.824 315.254 223.142 312.095 227.22C309.554 230.496 306.642 233.73 302.764 235.214C298.886 236.698 294.868 236.523 292.81 233.814" fill="#EBEBEB"/>
<path d="M286.335 283.934C286.199 283.393 286.122 282.839 286.104 282.282C285.985 281.078 285.838 279.566 285.663 277.774C285.441 275.553 285.102 273.345 284.648 271.159C284.059 268.497 283.256 265.887 282.247 263.354C281.259 260.824 279.918 258.446 278.264 256.291C276.914 254.536 275.193 253.102 273.224 252.091C271.886 251.43 270.452 250.983 268.975 250.768C268.419 250.749 267.868 250.67 267.33 250.53C267.886 250.468 268.447 250.468 269.003 250.53C270.536 250.652 272.036 251.043 273.434 251.685C275.505 252.657 277.323 254.095 278.747 255.885C280.474 258.067 281.866 260.495 282.877 263.088C283.905 265.659 284.704 268.315 285.264 271.026C285.696 273.236 285.99 275.471 286.146 277.718C286.286 279.636 286.342 281.183 286.37 282.261C286.419 282.818 286.407 283.379 286.335 283.934Z" fill="#E0E0E0"/>
<path d="M286.027 280.462C285.976 280.211 285.96 279.954 285.978 279.699C285.978 279.118 285.978 278.397 285.978 277.508C285.978 275.604 285.978 272.846 285.88 269.451C285.712 262.647 285.124 255.332 283.997 245.014C282.926 235.312 281.491 224.014 279.972 216.678C279.641 215.003 279.321 213.507 279.013 212.191C278.712 210.868 278.467 209.734 278.222 208.817C277.977 207.9 277.844 207.242 277.711 206.682C277.632 206.437 277.587 206.183 277.578 205.926C277.693 206.149 277.782 206.383 277.844 206.626L278.481 208.726C278.761 209.636 279.048 210.763 279.377 212.079C279.706 213.395 280.077 214.879 280.441 216.552C282.327 225.252 283.743 234.048 284.683 242.9C285.817 253.239 286.328 262.654 286.37 269.5C286.412 272.909 286.335 275.667 286.251 277.571C286.195 278.467 286.153 279.188 286.118 279.769C286.109 280.002 286.078 280.234 286.027 280.462Z" fill="#E0E0E0"/>
<path d="M285.978 262.304C285.916 261.542 285.916 260.777 285.978 260.015C286.107 257.937 286.341 255.867 286.678 253.813C287.175 250.762 287.848 247.742 288.694 244.769C289.679 241.113 290.943 237.537 292.474 234.073C295.61 226.632 299.866 220.549 303.576 216.783C304.393 215.92 305.265 215.111 306.187 214.361C306.586 214.018 306.943 213.661 307.3 213.416L308.315 212.716C308.927 212.255 309.573 211.841 310.247 211.477C310.352 211.631 307.51 213.304 303.947 217.119C299.384 222.204 295.721 228.029 293.118 234.346C291.62 237.792 290.35 241.332 289.317 244.944C288.33 248.262 287.672 251.321 287.168 253.89C286.664 256.459 286.426 258.58 286.258 260.036C286.227 260.798 286.134 261.557 285.978 262.304Z" fill="#E0E0E0"/>
<path d="M303.527 294.336L301.707 319.263H269.689L267.869 294.336H303.527Z" fill="#E0E0E0"/>
<path d="M306.621 284.508H264.047V294.336H306.621V284.508Z" fill="#E0E0E0"/>
<path d="M306.621 318.311V321.034H304.619H264.747V318.311H306.621Z" fill="#EBEBEB"/>
<path d="M302.659 325.829L304.619 321.034H266.273L268.562 325.829H302.659Z" fill="#E0E0E0"/>
<path d="M268.464 302.484C268.502 302.568 268.551 302.645 268.611 302.715L269.087 303.345L270.956 305.732L271.04 305.844L271.117 305.732C272.293 304.108 273.854 301.938 275.702 299.39H275.436L279.951 305.781L280.091 305.977L280.252 305.795L285.6 299.425H285.292L285.586 299.796C287.245 301.896 288.855 303.891 290.374 305.795L290.528 305.998L290.682 305.788L295.19 299.404H294.931L300.489 305.704L300.587 305.816L300.664 305.69L302.407 302.764L302.855 301.987C302.91 301.902 302.954 301.81 302.988 301.714C302.915 301.788 302.852 301.87 302.799 301.959L302.309 302.708L300.482 305.578H300.657L295.183 299.166L295.043 299.005L294.924 299.18L290.367 305.536H290.675L285.901 299.53L285.607 299.159L285.453 298.97L285.299 299.152L279.958 305.536H280.259L275.702 299.18L275.569 298.998L275.436 299.18L270.949 305.592H271.117L269.171 303.268C268.961 303.023 268.793 302.82 268.653 302.666C268.513 302.512 268.471 302.477 268.464 302.484Z" fill="#F5F5F5"/>
<path d="M267.4 294.175C267.4 294.28 275.422 294.371 285.32 294.371C295.218 294.371 303.24 294.28 303.24 294.175C303.24 294.07 295.218 293.972 285.32 293.972C275.422 293.972 267.4 294.063 267.4 294.175Z" fill="#F5F5F5"/>
<path d="M265.804 321.3C265.804 321.412 274.526 321.503 285.278 321.503C296.03 321.503 304.759 321.412 304.759 321.3C304.759 321.188 296.037 321.104 285.278 321.104C274.519 321.104 265.804 321.195 265.804 321.3Z" fill="#F5F5F5"/>
<path d="M313.642 325.71C313.642 325.815 251.566 325.892 175.042 325.892C98.5181 325.892 36.3931 325.815 36.3931 325.71C36.3931 325.605 98.4201 325.5 175 325.5C251.58 325.5 313.642 325.612 313.642 325.71Z" fill="#263238"/>
<path d="M187.243 65.5129C187.544 60.2559 190.778 57.0219 195.314 54.3129C197.598 52.9839 200.17 52.2262 202.809 52.1044C205.449 51.9825 208.079 52.5 210.476 53.6129C213.661 55.1249 216.447 57.7149 219.94 58.1629C225.694 58.9049 231.14 53.5709 236.789 54.9079C238.492 55.2928 240.006 56.2608 241.071 57.6444C242.135 59.028 242.682 60.7402 242.617 62.4845C242.552 64.2289 241.88 65.8958 240.716 67.1966C239.552 68.4975 237.97 69.3504 236.243 69.6079C240.009 70.1609 242.144 74.9209 240.751 78.4699C239.358 82.0189 235.403 84.0699 231.595 84.1539C227.787 84.2379 224.126 82.6769 220.836 80.7659C217.546 78.8549 214.466 76.5659 211.036 74.9139C207.606 73.2619 203.651 72.3099 199.969 73.2899C194.992 74.6129 191.457 79.3169 190.169 84.3079C188.881 89.2989 189.427 94.5699 190.204 99.6659C190.981 104.762 191.961 109.9 191.471 115.066C191.489 115.367 191.435 115.669 191.313 115.945C191.191 116.221 191.006 116.465 190.771 116.655C190.008 117.075 189.133 116.354 188.566 115.682C182.168 108.103 177.321 99.3411 174.3 89.8939C172.564 84.4269 171.605 79.1139 173.691 73.7939C175.777 68.4739 182.791 63.3639 187.236 65.5339" fill="#263238"/>
<path d="M182.392 90.9369L190.792 142.905C192.367 152.607 198.674 161.98 213.892 158.795C226.891 155.036 225.925 145.684 224.231 134.148C224.231 134.148 238.539 130.424 237.258 115.878C236.635 108.878 234.185 94.4719 231.812 81.4939C230.582 74.7706 226.865 68.7572 221.402 64.6505C215.938 60.5438 209.128 58.6449 202.328 59.3319L200.928 59.4719C185.927 61.8729 179.578 75.9779 182.392 90.9369Z" fill="#FFBF9D"/>
<path d="M224.266 134.148C224.266 134.148 215.166 135.604 204.785 130.459C204.785 130.459 210.49 141.267 224.861 138.495L224.266 134.148Z" fill="#FF9A6C"/>
<path d="M226.919 96.0468C226.973 96.5858 226.817 97.125 226.483 97.5515C226.149 97.9781 225.663 98.2591 225.127 98.3358C224.866 98.3839 224.597 98.379 224.338 98.3215C224.078 98.2639 223.833 98.1549 223.616 98.0009C223.399 97.8469 223.216 97.6509 223.076 97.4247C222.936 97.1985 222.844 96.9466 222.803 96.6838C222.747 96.1447 222.901 95.6048 223.234 95.1768C223.567 94.7489 224.052 94.4662 224.588 94.3878C224.85 94.3398 225.12 94.3449 225.38 94.4028C225.641 94.4607 225.887 94.5702 226.104 94.7248C226.321 94.8795 226.506 95.0762 226.646 95.3033C226.786 95.5303 226.879 95.7832 226.919 96.0468Z" fill="#263238"/>
<path d="M229.446 88.935C229.215 89.229 227.521 88.235 225.288 88.459C223.055 88.683 221.536 89.971 221.263 89.719C221.137 89.614 221.347 89.096 222.005 88.508C222.906 87.7414 224.02 87.2698 225.197 87.157C226.356 87.034 227.524 87.2789 228.536 87.857C229.278 88.333 229.558 88.802 229.446 88.935Z" fill="#263238"/>
<path d="M205.996 97.3839C206.052 97.923 205.898 98.463 205.565 98.8909C205.233 99.3188 204.747 99.6015 204.211 99.6799C203.947 99.7278 203.676 99.722 203.415 99.6628C203.153 99.6036 202.906 99.4923 202.689 99.3354C202.471 99.1786 202.287 98.9795 202.148 98.75C202.009 98.5206 201.918 98.2654 201.88 97.9999C201.824 97.4598 201.979 96.9189 202.313 96.4908C202.648 96.0627 203.135 95.7807 203.672 95.7039C203.936 95.6571 204.206 95.6637 204.467 95.7234C204.727 95.783 204.973 95.8946 205.19 96.0513C205.407 96.208 205.59 96.4068 205.729 96.6357C205.867 96.8647 205.958 97.1191 205.996 97.3839Z" fill="#263238"/>
<path d="M207.536 91.56C207.305 91.854 205.618 90.86 203.385 91.084C201.152 91.308 199.626 92.596 199.36 92.344C199.227 92.232 199.437 91.721 200.102 91.126C201.002 90.3588 202.117 89.8893 203.294 89.782C204.453 89.6566 205.622 89.9017 206.633 90.482C207.368 90.958 207.648 91.427 207.536 91.56Z" fill="#263238"/>
<path d="M217.308 107.303C217.308 107.177 218.645 106.799 220.864 106.288C221.431 106.169 221.956 106.001 222.012 105.588C222.005 104.994 221.815 104.417 221.466 103.936C220.79 102.615 220.09 101.215 219.366 99.736C216.398 93.793 214.193 88.879 214.431 88.76C214.669 88.641 217.273 93.366 220.234 99.316C220.934 100.779 221.634 102.179 222.292 103.516C222.717 104.171 222.9 104.953 222.81 105.728C222.75 105.938 222.641 106.131 222.493 106.291C222.345 106.452 222.161 106.575 221.956 106.652C221.65 106.772 221.33 106.852 221.004 106.89C218.729 107.275 217.329 107.429 217.308 107.303Z" fill="#263238"/>
<path d="M207.235 82.7539C207.074 83.3769 204.813 83.3139 202.23 83.8949C199.647 84.4759 197.596 85.3999 197.19 84.8959C197.008 84.6509 197.323 84.0419 198.114 83.3629C199.175 82.5163 200.423 81.9355 201.754 81.6689C203.077 81.374 204.452 81.3956 205.765 81.7319C206.766 82.0259 207.298 82.4529 207.235 82.7539Z" fill="#263238"/>
<path d="M227.969 82.5578C227.633 83.1038 226.037 82.7328 224.189 82.8938C222.341 83.0548 220.808 83.5938 220.395 83.0828C220.206 82.8378 220.395 82.3058 221.039 81.7598C221.901 81.0918 222.942 80.6946 224.03 80.6186C225.118 80.5426 226.204 80.7912 227.15 81.3328C227.85 81.7878 228.123 82.2918 227.969 82.5578Z" fill="#263238"/>
<path d="M184.66 101.577C184.401 101.493 174.384 99.6239 175.7 109.529C177.016 119.434 186.683 116.067 186.662 115.78C186.641 115.493 184.66 101.577 184.66 101.577Z" fill="#FFBF9D"/>
<path d="M183.141 112.434C183.092 112.434 182.98 112.574 182.707 112.749C182.322 112.979 181.862 113.049 181.426 112.945C180.327 112.7 179.221 111.153 178.941 109.375C178.803 108.529 178.855 107.664 179.095 106.841C179.145 106.52 179.273 106.216 179.469 105.955C179.664 105.695 179.92 105.487 180.215 105.35C180.408 105.268 180.624 105.258 180.823 105.322C181.023 105.386 181.192 105.521 181.3 105.7C181.475 105.959 181.433 106.162 181.489 106.176C181.545 106.19 181.678 105.98 181.545 105.581C181.459 105.343 181.293 105.143 181.076 105.014C180.777 104.844 180.422 104.798 180.089 104.888C179.693 105.022 179.339 105.256 179.058 105.566C178.778 105.875 178.581 106.252 178.486 106.659C178.181 107.574 178.102 108.549 178.255 109.501C178.584 111.489 179.858 113.218 181.342 113.442C181.619 113.484 181.901 113.464 182.169 113.383C182.437 113.302 182.683 113.162 182.889 112.973C183.155 112.7 183.176 112.441 183.141 112.434Z" fill="#FF9A6C"/>
<path d="M230.664 67.9419C229.082 65.2189 226.548 63.1679 223.853 61.5299C218.038 57.9139 211.231 56.2237 204.4 56.6999C197.551 57.2339 191.176 60.4061 186.62 65.5479C183.138 69.7697 180.97 74.9192 180.383 80.3599C179.82 85.7747 180.339 91.2474 181.909 96.4599C182.56 98.7559 183.442 101.115 185.255 102.669C186.389 103.635 188.216 104.167 189.301 103.145C189.868 102.467 190.193 101.62 190.225 100.737C191.366 92.8759 192.423 84.4479 188.874 77.3429C190.443 74.6092 192.556 72.2267 195.083 70.3429C196.352 69.4155 197.792 68.7487 199.321 68.3811C200.849 68.0134 202.435 67.9522 203.987 68.2009C208.551 69.1249 211.687 73.1569 215.551 75.7959C218.316 77.6668 221.487 78.8532 224.801 79.2573C228.115 79.6613 231.478 79.2715 234.612 78.1199L230.664 67.9419Z" fill="#263238"/>
<path d="M219.268 113.337C219.156 114.278 218.906 115.198 218.526 116.067C218.336 116.501 218.056 116.889 217.703 117.206C217.35 117.522 216.934 117.759 216.482 117.901C215.988 118.008 215.475 117.988 214.992 117.842C214.508 117.697 214.069 117.43 213.717 117.068C213.014 116.334 212.562 115.395 212.429 114.387C212.282 113.484 212.471 112.336 213.332 112.049C213.702 111.954 214.089 111.954 214.459 112.049L219.513 112.959" fill="#FF9A6C"/>
<path d="M218.211 117.558C218.162 117.418 217.224 118.041 215.663 117.768C214.783 117.622 213.988 117.156 213.43 116.459C213.109 116.029 212.881 115.537 212.761 115.014C212.64 114.491 212.63 113.948 212.73 113.421C212.785 113.152 212.874 112.89 212.996 112.644C213.136 112.413 213.108 112.427 213.311 112.413C213.514 112.399 213.85 112.504 214.116 112.553L214.949 112.7C216.027 112.896 217.007 113.057 217.826 113.183C219.471 113.435 220.5 113.533 220.521 113.421C220.542 113.309 219.562 113.001 217.945 112.595C217.14 112.399 216.174 112.168 215.103 111.937L214.277 111.755C213.972 111.68 213.664 111.622 213.353 111.58C213.108 111.556 212.861 111.616 212.653 111.748C212.468 111.878 212.321 112.054 212.226 112.259C212.073 112.575 211.96 112.909 211.89 113.253C211.759 113.899 211.773 114.565 211.932 115.204C212.091 115.844 212.39 116.44 212.807 116.949C213.158 117.356 213.586 117.689 214.067 117.929C214.548 118.17 215.071 118.312 215.607 118.349C216.303 118.425 217.005 118.306 217.637 118.006C218.057 117.803 218.239 117.6 218.211 117.558Z" fill="#263238"/>
<path d="M240.1 56.959C240.194 57.1689 240.26 57.3901 240.296 57.617C240.417 58.2586 240.438 58.9149 240.359 59.563C240.196 60.7651 239.795 61.9225 239.178 62.9671C238.561 64.0118 237.742 64.9226 236.768 65.646C234.332 67.585 230.468 68.362 226.513 67.746C222.558 67.13 218.47 65.261 214.27 63.546C210.07 61.831 205.8 60.641 201.901 61.355C198.478 62.005 195.371 63.7817 193.074 66.402C191.492 68.1441 190.216 70.1417 189.301 72.31C188.664 73.857 188.447 74.76 188.377 74.746C188.392 74.5086 188.435 74.2738 188.503 74.046C188.656 73.4179 188.843 72.7986 189.063 72.191C189.907 69.9451 191.15 67.8701 192.731 66.066C195.062 63.3148 198.258 61.4366 201.796 60.739C205.835 59.962 210.301 61.166 214.522 62.916C218.743 64.666 222.712 66.57 226.604 67.116C230.496 67.662 234.15 67.025 236.502 65.233C238.387 63.8641 239.674 61.8248 240.1 59.535C240.21 58.6798 240.21 57.8142 240.1 56.959Z" fill="#455A64"/>
<path d="M175.091 87.1289C175.036 86.2 175.167 85.2696 175.476 84.3919C176.417 81.0143 178.372 78.0067 181.076 75.7749C181.851 75.0905 182.785 74.6094 183.792 74.3749C184.499 74.2227 185.237 74.3063 185.892 74.6129C186.333 74.8369 186.501 75.0679 186.473 75.0959C185.678 74.7139 184.776 74.6175 183.918 74.8229C182.364 75.2219 180.614 76.9229 179.018 78.8549C177.686 80.5728 176.646 82.4978 175.938 84.5529C175.357 86.0999 175.196 87.1429 175.091 87.1289Z" fill="#455A64"/>
<path d="M177.716 95.6969C177.735 94.7626 177.925 93.8397 178.276 92.9739C179.757 88.6609 182.778 85.0465 186.76 82.8238C187.551 82.3245 188.426 81.9734 189.343 81.7878C188.585 82.2935 187.803 82.7608 186.998 83.1878C183.269 85.5509 180.369 89.0182 178.703 93.1068C178.419 93.9867 178.09 94.8513 177.716 95.6969Z" fill="#455A64"/>
<path d="M231.056 151.774C231.056 151.774 241.675 165.473 244.23 170.618C246.785 175.763 265.097 232.61 265.097 232.61L257.152 235.949L231.056 151.774Z" fill="#455A64"/>
<path d="M188.335 138.95V132.083L226.919 144.634L237.251 161.175L245.217 184.282L222.887 150.717L188.335 138.95Z" fill="#EBEBEB"/>
<path d="M186.039 145.551C186.039 145.551 169.673 165.151 170.023 177.863C170.373 190.4 187.376 266.581 187.376 266.581L183.26 280.196L178.801 325.57H271.551L265.097 232.61C264.068 232.554 244.797 179.333 244.797 179.333L223.188 149.38L187.663 136.577L186.039 145.551Z" fill="#455A64"/>
<path d="M256.718 210.469C256.718 210.469 263.207 210.217 266.595 211.729C269.983 213.241 272.846 212.485 275.24 217.168C277.634 221.851 280.434 223.972 281.022 231.077C281.61 238.182 273.938 254.646 268.87 256.977C263.802 259.308 256.718 210.469 256.718 210.469Z" fill="#455A64"/>
<g opacity="0.3">
<path d="M184.163 209.825C184.163 209.825 222.082 245.42 226.905 248.822C231.728 252.224 232.442 273.749 238.385 274.162C244.328 274.575 263.585 260.33 263.585 260.33L206.542 206.591L184.163 209.825Z" fill="black"/>
</g>
<path d="M237.559 241.696C237.559 241.696 229.313 252.245 228.368 254.891C227.423 257.537 226.506 259.294 227.514 260.176C227.876 260.561 228.347 260.826 228.864 260.935C229.381 261.044 229.919 260.991 230.405 260.785C231.749 260.267 238.378 251.524 238.378 251.524C238.378 251.524 229.586 264.061 229.187 266.224C228.788 268.387 230.51 269.437 232.526 269.059C234.542 268.681 238.378 263.018 238.378 263.018C238.378 263.018 232.939 269.318 234.087 270.382C235.235 271.446 236.558 271.579 238.07 270.823C239.582 270.067 243.418 265.097 243.418 265.097C243.418 265.097 240.772 267.897 242.221 268.597C243.67 269.297 243.796 269.367 245.056 268.324C246.316 267.281 257.432 256.424 257.432 256.424L250.432 251.622L237.559 241.696Z" fill="#FFBF9D"/>
<path d="M240.94 248.143C240.555 248.762 240.124 249.351 239.652 249.907L236.432 254.107C235.172 255.738 233.989 257.187 233.093 258.209C232.642 258.785 232.136 259.314 231.581 259.791C231.975 259.175 232.415 258.59 232.897 258.041L236.145 253.883C237.405 252.252 238.574 250.789 239.449 249.753C239.894 249.17 240.393 248.631 240.94 248.143Z" fill="#FF9A6C"/>
<path d="M246.785 253.197C245.414 255.095 243.947 256.922 242.389 258.671C240.92 260.495 239.36 262.242 237.713 263.907C239.082 262.007 240.549 260.179 242.109 258.433C243.578 256.609 245.138 254.862 246.785 253.197Z" fill="#FF9A6C"/>
<path d="M251.468 256.368C250.025 258.213 248.488 259.981 246.862 261.667C245.319 263.436 243.683 265.123 241.962 266.721C243.407 264.878 244.944 263.109 246.568 261.422C248.109 259.65 249.745 257.963 251.468 256.368Z" fill="#FF9A6C"/>
<path d="M191.058 157.738C196.385 156.611 203.147 156.142 208.299 159.061L236.432 184.443C236.432 184.443 276.087 228.928 277.641 231.406C279.195 233.884 281.288 248.528 275.282 255.99C269.276 263.452 262.5 260.582 254.8 258.825C248.703 257.425 206.066 226.1 188.538 213.087C182.447 208.603 178.055 202.187 176.078 194.887C174.741 190.19 174.267 185.29 174.678 180.425" fill="#455A64"/>
<path d="M174.685 180.46C174.685 180.46 174.685 180.712 174.636 181.195C174.587 181.678 174.566 182.392 174.552 183.337C174.552 186.09 174.829 188.836 175.378 191.534C175.758 193.483 176.273 195.403 176.918 197.281C177.707 199.51 178.737 201.646 179.991 203.651C181.427 205.948 183.136 208.064 185.08 209.951C187.117 211.995 189.651 213.717 192.22 215.635C202.552 223.244 214.865 232.281 228.732 242.046C232.232 244.482 235.774 246.946 239.449 249.438C243.124 251.93 246.904 254.436 250.887 256.746C251.882 257.32 252.908 257.839 253.96 258.3C254.491 258.519 255.042 258.685 255.605 258.797L257.313 259.21C259.583 259.848 261.897 260.316 264.236 260.61C266.599 260.903 268.996 260.466 271.103 259.357C273.196 258.155 274.946 256.437 276.185 254.366C278.208 250.866 278.95 246.806 279.083 242.865C279.162 240.895 279.082 238.921 278.845 236.964C278.726 235.998 278.565 235.032 278.362 234.087C278.187 233.15 277.868 232.245 277.417 231.406C276.269 229.894 274.967 228.438 273.742 226.982L270.018 222.684L262.703 214.34L236.327 184.534L208.229 159.11C206.003 157.909 203.549 157.193 201.026 157.01C199.19 156.861 197.344 156.877 195.51 157.059C194.033 157.206 192.913 157.395 192.164 157.521L191.324 157.675C191.135 157.71 191.037 157.717 191.037 157.717C191.037 157.717 191.415 157.626 192.157 157.472C192.899 157.318 194.019 157.129 195.503 156.968C197.342 156.769 199.195 156.739 201.04 156.877C203.588 157.054 206.069 157.77 208.32 158.977L236.495 184.31C244.391 193.151 253.295 203.175 262.92 214.074L270.242 222.418L273.966 226.716C275.212 228.179 276.479 229.6 277.676 231.175C277.816 231.397 277.935 231.631 278.033 231.875C278.131 232.106 278.201 232.337 278.285 232.575C278.446 233.044 278.551 233.52 278.67 233.975C278.88 234.934 279.041 235.907 279.16 236.887C279.4 238.863 279.482 240.855 279.405 242.844C279.265 246.82 278.523 250.936 276.451 254.52C275.182 256.648 273.386 258.413 271.236 259.644C269.065 260.782 266.599 261.231 264.166 260.932C261.801 260.643 259.461 260.175 257.166 259.532L255.458 259.119C254.879 259.002 254.311 258.831 253.764 258.608C252.696 258.136 251.656 257.603 250.649 257.012C246.645 254.688 242.879 252.161 239.197 249.69C235.515 247.219 231.945 244.72 228.48 242.277C214.613 232.477 202.314 223.44 192.003 215.803C189.448 213.878 186.907 212.142 184.856 210.077C182.903 208.165 181.19 206.024 179.753 203.7C178.504 201.68 177.478 199.53 176.694 197.288C176.053 195.398 175.546 193.466 175.175 191.506C174.638 188.798 174.385 186.041 174.419 183.281C174.45 182.336 174.539 181.394 174.685 180.46Z" fill="#263238"/>
<path d="M246.015 182.595L245.854 182.497L245.406 182.161C245.028 181.86 244.426 181.461 243.726 180.838C242.277 179.662 240.296 177.835 237.923 175.504C235.55 173.173 232.806 170.31 229.684 167.216C228.116 165.683 226.471 164.066 224.672 162.498C222.845 160.848 220.904 159.33 218.862 157.955C218.008 157.339 217.084 156.87 216.223 156.345L216.097 156.268V156.142C216.244 155.505 216.391 154.875 216.531 154.259L216.65 154.469L195.132 147.7L188.755 145.656L187.047 145.089L186.599 144.935L186.452 144.872C186.452 144.872 186.508 144.872 186.613 144.872L187.061 144.998L188.797 145.502L195.209 147.448L216.79 154.112L216.944 154.161L216.909 154.322C216.769 154.938 216.629 155.568 216.482 156.205L216.391 156.009C217.266 156.541 218.204 157.017 219.058 157.633C221.115 159.015 223.069 160.545 224.903 162.211C226.709 163.793 228.354 165.417 229.922 166.964C233.03 170.079 235.753 172.949 238.105 175.301C240.457 177.653 242.403 179.501 243.817 180.712C244.517 181.342 245.084 181.769 245.455 182.112L245.882 182.469C245.931 182.506 245.975 182.549 246.015 182.595Z" fill="#263238"/>
<path d="M259.938 211.253C259.642 210.793 259.378 210.314 259.147 209.818L257.124 205.8C255.43 202.391 253.12 197.68 250.586 192.458C248.052 187.236 245.784 182.497 244.16 179.06C243.376 177.366 242.725 175.987 242.256 174.979C242.053 174.524 241.885 174.153 241.759 173.859C241.691 173.733 241.64 173.599 241.605 173.46C241.693 173.574 241.766 173.698 241.822 173.831C241.969 174.111 242.158 174.475 242.382 174.916C242.879 175.91 243.565 177.275 244.391 178.948C246.085 182.399 248.381 187.103 250.915 192.297L257.355 205.688L259.28 209.755C259.525 210.243 259.744 210.743 259.938 211.253Z" fill="#263238"/>
<path d="M194.397 288.043H194.649L195.349 288.092L198.149 288.316L208.383 289.198L242.9 292.299L242.704 292.516L240.457 283.5C240.107 282.1 239.757 280.7 239.421 279.3L239.582 279.44L200.942 274.953L201.061 274.89C198.793 278.915 197.043 282.156 195.902 284.417C195.335 285.544 194.922 286.426 194.67 287.035C194.574 287.262 194.495 287.496 194.432 287.735C194.408 287.814 194.396 287.897 194.397 287.98C194.373 287.642 194.446 287.305 194.607 287.007C194.838 286.384 195.237 285.488 195.79 284.347C196.896 282.072 198.59 278.81 200.851 274.764L200.893 274.694H200.97L239.624 279.055H239.75V279.181L240.786 283.381C241.542 286.461 242.291 289.478 243.005 292.369L243.068 292.614H242.816L208.229 289.38L198.03 288.393L195.3 288.113L194.6 288.036C194.533 288.048 194.465 288.05 194.397 288.043Z" fill="#263238"/>
<g opacity="0.3">
<path d="M195.65 288.162L197.309 292.474L242.858 295.19V292.474L195.65 288.162Z" fill="black"/>
</g>
<path d="M133 71.0919C132.86 68.6559 130.837 66.6189 128.513 65.8839C126.189 65.1489 123.613 65.5199 121.324 66.2899C116.277 67.9629 112.035 71.3929 107.919 74.7599C101.528 79.9749 95.3192 87.1429 92.8832 95.0599C91.0422 100.996 90.5102 104.86 92.4002 111.16C94.0662 116.76 95.3892 122.157 95.0602 126.833C94.5352 134.218 93.6602 135.933 91.7422 143.199C90.5592 147.728 94.5982 159.579 94.5982 159.579L120.141 149.779C129.241 145.495 148.883 137.501 148.883 137.501L133 71.0919Z" fill="#263238"/>
<path d="M118.657 157.703C118.699 151.487 118.762 147.161 118.755 147.203C118.748 147.245 107.604 144.627 105.357 128.723C104.05 118.426 103.764 108.024 104.503 97.6708C105.266 88.1648 111.776 76.5938 121.24 77.7558L150.724 85.7498C153.601 86.1068 154.56 88.5498 154.455 91.4548L154.672 92.8128L152.509 138.229L153.44 157.542C153.062 166.173 144.529 174.02 135.898 174.412C133.651 174.518 131.406 174.163 129.301 173.368C127.196 172.573 125.277 171.355 123.661 169.789C122.046 168.223 120.768 166.343 119.907 164.264C119.047 162.185 118.621 159.952 118.657 157.703Z" fill="#B56760"/>
<path d="M111.181 110.341C111.164 110.873 111.356 111.391 111.715 111.783C112.075 112.176 112.574 112.412 113.106 112.441C113.362 112.462 113.62 112.432 113.865 112.353C114.109 112.273 114.336 112.147 114.531 111.979C114.726 111.812 114.887 111.608 115.002 111.378C115.118 111.149 115.187 110.898 115.206 110.642C115.223 110.11 115.031 109.592 114.672 109.199C114.312 108.807 113.813 108.571 113.281 108.542C113.025 108.521 112.767 108.551 112.522 108.63C112.278 108.709 112.051 108.836 111.856 109.004C111.661 109.171 111.5 109.375 111.385 109.605C111.269 109.834 111.2 110.084 111.181 110.341Z" fill="#263238"/>
<path d="M108.5 104.832C108.745 105.098 110.306 103.985 112.497 104.027C114.688 104.069 116.27 105.196 116.515 104.93C116.634 104.811 116.382 104.328 115.689 103.81C114.755 103.135 113.635 102.768 112.483 102.76C111.343 102.733 110.225 103.071 109.291 103.726C108.619 104.23 108.381 104.706 108.5 104.832Z" fill="#263238"/>
<path d="M131.67 110.103C131.653 110.635 131.845 111.153 132.204 111.545C132.564 111.938 133.063 112.174 133.595 112.203C133.851 112.224 134.109 112.194 134.354 112.115C134.598 112.035 134.825 111.908 135.02 111.741C135.215 111.574 135.376 111.37 135.491 111.14C135.607 110.911 135.676 110.66 135.695 110.404C135.716 109.872 135.526 109.353 135.167 108.96C134.808 108.567 134.309 108.331 133.777 108.304C133.52 108.281 133.261 108.309 133.015 108.388C132.769 108.466 132.542 108.593 132.345 108.761C132.149 108.928 131.988 109.133 131.872 109.364C131.756 109.594 131.688 109.845 131.67 110.103Z" fill="#263238"/>
<path d="M129.5 104.769C129.752 105.035 131.313 103.922 133.504 103.964C135.695 104.006 137.277 105.133 137.522 104.867C137.641 104.748 137.389 104.265 136.696 103.747C135.762 103.072 134.642 102.705 133.49 102.697C132.351 102.673 131.233 103.011 130.298 103.663C129.619 104.167 129.381 104.643 129.5 104.769Z" fill="#263238"/>
<path d="M120.715 121.324C120.715 121.205 119.371 120.946 117.166 120.624C116.613 120.554 116.081 120.435 115.997 120.05C115.957 119.473 116.097 118.899 116.396 118.405L118.125 114.17C120.526 108.15 122.269 103.194 122.024 103.103C121.779 103.012 119.644 107.814 117.243 113.834C116.662 115.318 116.109 116.732 115.584 118.09C115.219 118.756 115.103 119.53 115.255 120.274C115.332 120.474 115.453 120.653 115.609 120.799C115.766 120.944 115.954 121.052 116.158 121.114C116.468 121.201 116.788 121.251 117.11 121.261C119.329 121.415 120.701 121.45 120.715 121.324Z" fill="#263238"/>
<path d="M118.755 147.21C126.223 147.45 133.612 145.613 140.098 141.904C140.098 141.904 134.547 153.013 118.692 151.256L118.755 147.21Z" fill="#8A4A43"/>
<path d="M128.8 97.027C129.059 97.608 131.215 97.174 133.805 97.307C136.395 97.44 138.509 98.007 138.81 97.44C138.943 97.174 138.544 96.642 137.669 96.124C136.506 95.4968 135.215 95.1426 133.894 95.088C132.573 95.0334 131.257 95.28 130.046 95.809C129.129 96.25 128.688 96.747 128.8 97.027Z" fill="#263238"/>
<path d="M107.891 97.9999C108.339 98.5039 110.131 97.9999 112.273 97.9999C114.415 97.9999 116.235 98.3989 116.662 97.8879C116.851 97.6359 116.571 97.1319 115.787 96.6489C114.702 96.0431 113.473 95.7408 112.231 95.7739C111.001 95.7648 109.792 96.089 108.731 96.7119C107.954 97.2369 107.695 97.7479 107.891 97.9999Z" fill="#263238"/>
<path d="M121.233 126.7C121.7 126.025 122.341 125.488 123.087 125.147C123.834 124.805 124.659 124.672 125.475 124.761H125.629C126.073 124.76 126.507 124.889 126.879 125.132C127.25 125.374 127.543 125.72 127.721 126.126C127.9 126.532 127.956 126.982 127.882 127.419C127.809 127.857 127.61 128.264 127.309 128.59C126.76 129.226 126.026 129.674 125.209 129.871C124.695 130.037 124.151 130.092 123.614 130.031C123.077 129.971 122.559 129.797 122.094 129.521C121.638 129.231 121.3 128.787 121.142 128.27C120.985 127.752 121.017 127.196 121.233 126.7Z" fill="#8A4A43"/>
<path d="M127.358 123.403C127.253 123.403 127.12 123.956 126.714 124.803C126.207 125.862 125.433 126.771 124.468 127.441C123.504 128.111 122.382 128.519 121.212 128.625C120.309 128.723 119.728 128.625 119.707 128.758C119.686 128.891 120.246 129.094 121.233 129.129C122.534 129.156 123.81 128.77 124.878 128.027C125.945 127.284 126.75 126.221 127.176 124.992C127.491 124.033 127.442 123.41 127.358 123.403Z" fill="#263238"/>
<path d="M104.097 115.997L100.814 102.697C97.86 98.6229 100.163 91.9729 102.256 87.4019C104.349 82.8309 108.339 79.3239 112.756 76.9579C117.173 74.5919 122.101 73.2549 126.987 72.0579C124.969 78.2296 120.81 83.4759 115.262 86.8489C115.262 86.8489 107.191 92.3999 105.7 98.9099C104.132 106.043 104.097 115.997 104.097 115.997Z" fill="#263238"/>
<path d="M122.549 80.4509L145.698 94.3599C146.343 101.499 148.005 108.509 150.633 115.178C154.903 111.524 157.542 118.566 158.823 113.155C158.893 112.868 157.647 124.502 153.174 124.866L152.474 137.515L174.552 132.083C174.552 132.083 173.362 116.753 169.596 107.45C167.251 101.668 166.012 96.8169 163.702 91.0209C161.945 86.6319 158.837 80.0729 156.499 76.9509C151.487 70.2519 132.916 69.9509 132.916 69.9509C124.733 71.8829 130.242 70.9659 123.347 75.7889L120.995 82.0889" fill="#263238"/>
<path d="M150.626 115.087C150.626 111.748 154.189 109.319 157.227 110.824C158.893 111.657 160.237 113.428 160.286 116.977C160.412 126.441 150.71 124.628 150.689 124.355C150.668 124.082 150.647 119 150.626 115.087Z" fill="#B56760"/>
<path d="M153.58 120.729C153.622 120.729 153.755 120.841 154.035 120.967C154.44 121.124 154.89 121.124 155.295 120.967C156.31 120.582 157.143 118.986 157.164 117.278C157.177 116.467 157.007 115.663 156.667 114.926C156.569 114.631 156.401 114.364 156.178 114.147C155.955 113.93 155.684 113.77 155.386 113.68C155.193 113.632 154.989 113.652 154.809 113.738C154.629 113.823 154.484 113.969 154.399 114.149C154.273 114.415 154.336 114.597 154.287 114.618C154.238 114.639 154.077 114.464 154.147 114.072C154.201 113.836 154.331 113.624 154.518 113.47C154.782 113.269 155.113 113.179 155.442 113.218C155.837 113.286 156.208 113.455 156.519 113.707C156.83 113.96 157.072 114.288 157.22 114.66C157.64 115.47 157.851 116.372 157.836 117.285C157.836 119.196 156.835 120.995 155.442 121.408C155.184 121.486 154.912 121.505 154.646 121.466C154.38 121.426 154.126 121.327 153.902 121.177C153.601 120.96 153.552 120.75 153.58 120.729Z" fill="#8A4A43"/>
<path d="M133.588 69.9299C133.481 70.1357 133.347 70.3263 133.189 70.4969C132.902 70.8399 132.489 71.3159 131.901 71.8969C130.781 73.0239 129.164 74.5149 127.372 76.1459C125.58 77.7769 123.97 79.2609 122.822 80.3459C122.231 80.9646 121.61 81.5534 120.96 82.1099C121.071 81.907 121.21 81.7208 121.373 81.5569C121.66 81.2139 122.073 80.7379 122.64 80.1569C123.746 79.0019 125.335 77.4829 127.127 75.8519L131.726 71.6519C132.902 70.6299 133.546 69.8949 133.588 69.9299Z" fill="#455A64"/>
<path d="M107.835 77.9448C108.016 77.6911 108.223 77.4566 108.451 77.2448C109.05 76.6141 109.694 76.0269 110.376 75.4878C112.638 73.698 115.242 72.388 118.027 71.6378C119.568 71.1624 121.213 71.1405 122.766 71.5748C123.405 71.7574 123.998 72.0732 124.506 72.5016C125.014 72.9299 125.425 73.461 125.713 74.0598C126.079 74.8813 126.126 75.8093 125.846 76.6638C125.771 76.8931 125.663 77.1101 125.524 77.3078C125.426 77.4385 125.37 77.5015 125.356 77.4968C125.493 77.2127 125.612 76.9205 125.713 76.6218C125.921 75.7999 125.837 74.9316 125.475 74.1648C125.192 73.6128 124.797 73.1259 124.315 72.7354C123.832 72.3448 123.274 72.0592 122.675 71.8968C121.18 71.5012 119.604 71.5328 118.125 71.9878C115.387 72.7327 112.815 73.9892 110.544 75.6908C108.794 76.9998 107.884 77.9938 107.835 77.9448Z" fill="#455A64"/>
<path d="M102.543 87.4999C102.715 87.2433 102.917 87.0083 103.145 86.7999C103.551 86.3799 104.153 85.7779 104.909 85.0569C106.861 83.1348 109.043 81.4608 111.405 80.0729C112.706 79.3022 114.125 78.7511 115.605 78.4419C116.852 78.1884 118.148 78.3817 119.266 78.9879C120.009 79.4086 120.598 80.0562 120.946 80.8359C121.032 81.0614 121.091 81.2964 121.121 81.5359C121.132 81.6149 121.132 81.6949 121.121 81.7739C121.079 81.7739 121.051 81.4519 120.806 80.9269C120.43 80.2119 119.847 79.6265 119.133 79.2469C118.052 78.7006 116.816 78.5448 115.633 78.8059C114.186 79.1247 112.799 79.673 111.524 80.4299C109.19 81.8074 107.012 83.4339 105.028 85.2809L103.187 86.9329C102.99 87.1407 102.774 87.3304 102.543 87.4999Z" fill="#455A64"/>
<path d="M157.955 125.3C157.977 125.953 157.804 126.598 157.46 127.153C157.115 127.708 156.614 128.148 156.019 128.418C155.424 128.688 154.763 128.776 154.118 128.67C153.473 128.565 152.874 128.27 152.397 127.824C151.92 127.378 151.585 126.8 151.436 126.164C151.287 125.528 151.33 124.862 151.559 124.251C151.788 123.639 152.194 123.109 152.724 122.727C153.255 122.346 153.886 122.13 154.539 122.108C154.973 122.093 155.406 122.164 155.812 122.316C156.219 122.468 156.591 122.699 156.909 122.996C157.226 123.292 157.482 123.648 157.661 124.044C157.841 124.439 157.941 124.866 157.955 125.3Z" fill="#455A64"/>
<path d="M97.3001 219.835C96.5091 220.36 87.7801 222.474 85.6661 228.032C83.5521 233.59 72.3241 244.874 80.4511 255.892L97.3001 246.547V219.835Z" fill="#FF725E"/>
<path d="M80.458 255.92C79.0338 254.045 78.0872 251.851 77.7 249.529C77.3973 247.463 77.5212 245.357 78.064 243.341C79.065 239.344 81.34 235.641 83.167 232.617C84.1235 231.16 84.9615 229.629 85.673 228.039C87.402 223.496 93.548 221.249 96.173 220.29C96.5596 220.153 96.9362 219.989 97.3 219.8V246.554L80.458 255.92ZM97.3 219.863C96.9354 220.033 96.5615 220.183 96.18 220.311C93.562 221.263 87.423 223.51 85.68 228.011C84.9715 229.605 84.1334 231.139 83.174 232.596C81.347 235.592 79.072 239.316 78.078 243.313C77.5351 245.322 77.4112 247.421 77.714 249.48C78.0999 251.79 79.0389 253.974 80.451 255.843L97.251 246.505L97.3 219.863Z" fill="#263238"/>
<path d="M116.76 173.796L118.139 154.735L152.831 140.259L154.063 147.371L130.431 159.397L116.76 173.796Z" fill="#E0E0E0"/>
<path d="M154.063 143.178C154.063 143.178 132.811 151.774 123.382 160.174C114.52 168.07 96.0822 199.206 94.1082 207.697C92.1342 216.188 92.5192 239.673 92.5192 239.673C92.5192 239.673 92.4702 263.907 92.4702 264.502C92.4702 265.097 77.2732 304.185 80.0312 325.5H166.712C166.712 325.5 169.281 295.484 163.359 283.836C157.437 272.188 157.234 274.554 157.234 274.554C157.234 274.554 160.79 270.606 160.398 267.05C160.053 264.712 159.174 262.484 157.829 260.54L173.033 213.15C173.033 213.15 174.608 189.259 170.464 173.25C166.6 158.284 165.13 159.131 160.3 154.336C160.363 154.469 160.195 154.238 160.3 154.336L155.883 150.717L154.063 143.178Z" fill="#FF725E"/>
<path d="M97.3001 288.043C97.0341 287.021 103.866 274.89 103.866 274.89L143.066 281.47L145.789 292.474L97.3001 288.043Z" fill="#FF725E"/>
<path d="M97.3 288.043H97.559L98.259 288.092L101.059 288.316L111.3 289.212L145.789 292.299L145.593 292.516C144.935 289.849 144.242 287.049 143.535 284.207C143.311 283.297 143.087 282.387 142.835 281.512L142.982 281.645L103.817 275.009L103.943 274.946C101.675 278.964 99.932 282.212 98.791 284.466C98.217 285.593 97.804 286.482 97.552 287.091C97.4534 287.318 97.3716 287.552 97.307 287.791C97.265 287.952 97.307 288.029 97.307 288.036C97.2934 287.696 97.3681 287.358 97.524 287.056C97.755 286.433 98.154 285.544 98.707 284.403C99.813 282.121 101.507 278.859 103.768 274.82L103.81 274.75H103.894L143.094 281.267H143.213V281.379L143.878 284.074C144.578 286.923 145.278 289.723 145.936 292.39L145.999 292.635H145.747L111.167 289.401L100.968 288.414L98.231 288.134L97.531 288.057C97.4537 288.063 97.3761 288.058 97.3 288.043Z" fill="#263238"/>
<g opacity="0.3">
<path d="M88.9001 269.22L89.7751 276.318C96.0191 280.742 104.853 279.902 111.538 276.164C118.223 272.426 123.179 266.287 127.757 260.155C141.652 241.57 153.755 221.501 162.008 199.815C140.483 225.666 110.649 243.544 88.9001 269.22Z" fill="black"/>
</g>
<path d="M158.9 163.233C166.173 169.022 172.515 187.138 161.252 202.797C161.252 202.797 112.042 269.563 103.894 274.897C95.7462 280.231 84.7772 277.088 81.6412 269.255C78.5052 261.422 79.7582 253.897 84.1472 248.57C88.5362 243.243 117.376 192.458 117.376 192.458C117.376 192.458 123.949 168.924 135.156 162.092" fill="#FF725E"/>
<path d="M135.142 162.085L134.638 162.442C134.134 162.778 133.648 163.14 133.182 163.527C131.398 165.057 129.804 166.796 128.436 168.707C124.81 173.649 120.736 181.741 117.474 192.507C111.174 203.644 103.25 217.511 94.052 233.107C91.735 236.985 89.362 240.989 86.8 245.007C86.1 246.001 85.526 247.03 84.784 248.003C84.427 248.5 84.084 248.983 83.699 249.452C83.3389 249.936 83.0048 250.438 82.698 250.957C82.0788 252.002 81.5608 253.104 81.151 254.247C80.7485 255.409 80.4579 256.607 80.283 257.824C79.9438 260.301 80.0504 262.819 80.598 265.258C80.738 265.874 80.885 266.49 81.081 267.092C81.277 267.694 81.48 268.296 81.697 268.891C81.914 269.486 82.222 270.039 82.488 270.613L83.006 271.411C83.1696 271.684 83.357 271.941 83.566 272.181C85.2132 274.19 87.3985 275.688 89.866 276.5C92.341 277.342 94.9834 277.57 97.566 277.165C99.953 276.778 102.22 275.852 104.195 274.456C106.015 272.898 107.712 271.201 109.27 269.381C112.448 265.811 115.451 262.178 118.37 258.587C124.194 251.391 129.675 244.342 134.869 237.587C140.063 230.832 144.942 224.399 149.492 218.358L156.058 209.594L159.138 205.457C160.132 204.099 161.168 202.811 161.994 201.439C163.689 198.897 165.004 196.121 165.9 193.2C166.089 192.5 166.278 191.8 166.46 191.142C166.642 190.484 166.719 189.777 166.845 189.105C167.814 183.475 167.204 177.686 165.081 172.382C164.103 169.801 162.7 167.402 160.93 165.284C160.615 164.927 160.363 164.584 160.104 164.353L159.439 163.737C159.082 163.408 158.907 163.226 158.907 163.226C158.907 163.226 159.103 163.387 159.467 163.709L160.167 164.311C160.44 164.549 160.692 164.885 161.014 165.235C162.807 167.345 164.227 169.746 165.214 172.333C166.83 176.42 167.596 180.792 167.468 185.185C167.413 186.51 167.277 187.831 167.062 189.14C166.936 189.84 166.866 190.54 166.684 191.191C166.502 191.842 166.313 192.591 166.117 193.291C165.219 196.238 163.894 199.038 162.183 201.6C161.35 203 160.314 204.274 159.327 205.639L156.254 209.783C154.154 212.583 151.97 215.509 149.702 218.561C145.166 224.609 140.287 231.063 135.107 237.811C129.927 244.559 124.446 251.615 118.622 258.811C115.703 262.409 112.707 266.049 109.522 269.619C108.731 270.515 107.905 271.397 107.072 272.265C106.238 273.156 105.342 273.986 104.391 274.75C102.372 276.191 100.049 277.149 97.601 277.55C94.949 277.966 92.2355 277.726 89.698 276.85C87.1784 276.01 84.9497 274.471 83.272 272.412C83.0528 272.168 82.8582 271.903 82.691 271.621L82.159 270.802C81.886 270.207 81.564 269.633 81.34 269.024C81.116 268.415 80.885 267.82 80.717 267.204C80.549 266.588 80.374 265.965 80.234 265.342C79.3599 261.63 79.5565 257.747 80.801 254.142C81.2239 252.978 81.7535 251.856 82.383 250.789C82.705 250.264 83.034 249.746 83.405 249.256C83.776 248.766 84.147 248.29 84.49 247.807C85.19 246.855 85.834 245.819 86.499 244.832C89.054 240.821 91.434 236.824 93.758 232.932C102.963 217.385 110.894 203.532 117.257 192.416C120.519 181.643 124.677 173.565 128.345 168.616C129.725 166.703 131.341 164.972 133.154 163.464C133.626 163.082 134.119 162.727 134.631 162.4C134.96 162.19 135.142 162.085 135.142 162.085Z" fill="#263238"/>
<path d="M113.442 213.766C113.442 213.766 112.175 210.455 109.641 210.014C107.107 209.573 102.214 210.014 102.214 210.014C102.214 210.014 100.058 211.638 100.079 213.864C100.08 215.137 100.233 216.406 100.534 217.644C100.534 217.644 98.763 215.257 96.432 217.518C94.101 219.779 92.057 224.364 92.057 224.364C92.057 224.364 88.956 225.358 87.773 226.863C86.939 228.068 86.3033 229.398 85.89 230.804C85.1198 231.334 84.5118 232.068 84.1337 232.923C83.7555 233.778 83.622 234.721 83.748 235.648C83.8877 236.633 84.2587 237.571 84.8306 238.385C85.4024 239.198 86.1588 239.865 87.038 240.331C87.038 240.331 96.285 247.142 97.412 246.26C98.539 245.378 100.856 243.992 97.531 241.045L92.12 236.25L93.688 233.828C93.688 233.828 102.739 240.051 104.188 239.75C105.637 239.449 108.108 239.4 107.093 237.167C106.078 234.934 97.622 228.424 97.622 228.424L98.623 224.924C98.623 224.924 108.423 231.546 110.012 230.489C111.601 229.432 113.043 228.935 111.412 226.751C109.781 224.567 102.718 219.352 102.718 219.352L105.609 216.65C105.609 216.65 112.448 217.847 113.442 213.766Z" fill="#B56760"/>
<path d="M155.855 150.717L155.61 150.787L154.91 150.983C154.28 151.144 153.349 151.389 152.152 151.732C148.78 152.665 145.459 153.778 142.205 155.064C141.176 155.477 140.105 155.932 139.02 156.464C138.474 156.723 137.921 156.989 137.368 157.29C137.095 157.444 136.808 157.584 136.535 157.745C136.262 157.906 135.996 158.074 135.744 158.27C133.609 160.032 131.645 161.991 129.878 164.122C126.042 168.553 122.129 173.691 118.125 179.137C114.121 184.583 110.425 189.889 107.1 194.726C105.441 197.148 103.887 199.458 102.445 201.635C101.076 203.624 99.8345 205.698 98.728 207.844C97.1904 210.988 95.8894 214.243 94.836 217.581C94.451 218.764 94.178 219.681 93.996 220.311L93.793 221.011C93.7726 221.095 93.7445 221.177 93.709 221.256C93.709 221.256 93.709 221.165 93.758 221.004L93.926 220.304C94.087 219.674 94.339 218.743 94.696 217.553C95.7048 214.192 96.9757 210.915 98.497 207.753C99.593 205.589 100.828 203.499 102.193 201.495C103.593 199.304 105.175 196.987 106.82 194.558C110.124 189.707 113.82 184.415 117.831 178.948C121.842 173.481 125.762 168.357 129.626 163.919C131.412 161.775 133.402 159.811 135.569 158.053C135.828 157.85 136.115 157.689 136.388 157.507C136.661 157.325 136.955 157.206 137.235 157.052C137.788 156.751 138.348 156.485 138.901 156.233C140 155.715 141.071 155.26 142.107 154.833C145.379 153.563 148.721 152.483 152.117 151.599C153.321 151.277 154.259 151.06 154.917 150.899L155.617 150.745C155.695 150.728 155.775 150.719 155.855 150.717Z" fill="#263238"/>
<path d="M150.353 270.368C149.975 270.192 149.612 269.986 149.268 269.752C148.568 269.346 147.609 268.709 146.433 267.89C140.316 263.583 134.973 258.269 130.634 252.175C129.808 251.006 129.164 250.04 128.751 249.375C128.52 249.028 128.314 248.666 128.135 248.29C128.396 248.604 128.63 248.939 128.835 249.291C129.283 249.956 129.955 250.894 130.809 252.042C135.24 258.023 140.548 263.302 146.552 267.701C147.7 268.548 148.652 269.213 149.31 269.654C149.674 269.867 150.023 270.105 150.353 270.368Z" fill="#263238"/>
<g opacity="0.3">
<path d="M98.5742 288.162L99.7572 292.474L144.123 292.327L98.5742 288.162Z" fill="black"/>
</g>
</svg>
