<svg width="18" height="18" viewBox="0 0 18 18" fill="none" xmlns="http://www.w3.org/2000/svg">
<g clip-path="url(#clip0_1222_45979)">
<path d="M0.642822 16.0714V1.92854C0.642822 1.58754 0.778281 1.26052 1.0194 1.0194C1.26052 0.778281 1.58754 0.642822 1.92854 0.642822H16.0714C16.4124 0.642822 16.7395 0.778281 16.9805 1.0194C17.2216 1.26052 17.3571 1.58754 17.3571 1.92854V16.0714C17.3571 16.4124 17.2216 16.7395 16.9805 16.9805C16.7395 17.2216 16.4124 17.3571 16.0714 17.3571H12.2143V11.2628H13.1271C13.3351 11.2628 13.5346 11.1802 13.6816 11.0331C13.8287 10.886 13.9114 10.6865 13.9114 10.4785V9.48854C13.9114 9.38554 13.8911 9.28356 13.8517 9.1884C13.8123 9.09324 13.7545 9.00679 13.6816 8.93396C13.6089 8.86113 13.5223 8.80337 13.4272 8.76395C13.3321 8.72454 13.2301 8.70425 13.1271 8.70425H12.2657V7.49568C12.2657 6.41568 12.7543 6.41568 13.2428 6.41568H13.8728C13.9763 6.41995 14.0794 6.40142 14.175 6.36144C14.2705 6.32145 14.3561 6.26096 14.4257 6.18425C14.5004 6.11312 14.5595 6.02725 14.5994 5.9321C14.6392 5.83693 14.6589 5.73455 14.6571 5.63139V4.67997C14.6606 4.57527 14.6434 4.47092 14.6063 4.3729C14.5694 4.27486 14.5136 4.18507 14.4419 4.10865C14.3703 4.03224 14.2843 3.97068 14.1889 3.92751C14.0935 3.88435 13.9903 3.86043 13.8857 3.85711H12.4071C11.9757 3.84088 11.5459 3.91851 11.1474 4.08463C10.7489 4.25073 10.3912 4.50137 10.099 4.81921C9.80685 5.13706 9.58716 5.51453 9.45512 5.92558C9.32308 6.33662 9.28185 6.77142 9.33425 7.19996V8.70425H8.51139C8.40733 8.70254 8.30396 8.72157 8.20731 8.76022C8.11066 8.79887 8.02268 8.85636 7.94849 8.92937C7.8743 9.00237 7.81537 9.0894 7.77515 9.1854C7.73494 9.28141 7.71424 9.38446 7.71425 9.48854V10.4785C7.71424 10.5826 7.73494 10.6857 7.77515 10.7817C7.81537 10.8777 7.8743 10.9647 7.94849 11.0377C8.02268 11.1107 8.11066 11.1682 8.20731 11.2069C8.30396 11.2455 8.40733 11.2645 8.51139 11.2628H9.33425V17.3571H1.92854C1.58754 17.3571 1.26052 17.2216 1.0194 16.9805C0.778281 16.7395 0.642822 16.4124 0.642822 16.0714Z" stroke="white" stroke-linecap="round" stroke-linejoin="round"/>
</g>
<defs>
<clipPath id="clip0_1222_45979">
<rect width="18" height="18" fill="white"/>
</clipPath>
</defs>
</svg>
