<svg width="18" height="18" viewBox="0 0 18 18" fill="none" xmlns="http://www.w3.org/2000/svg">
<g clip-path="url(#clip0_1222_45967)">
<path d="M13.2855 4.68534C13.108 4.68534 12.9641 4.54143 12.9641 4.36391C12.9641 4.18639 13.108 4.04248 13.2855 4.04248" stroke="white" stroke-linecap="round" stroke-linejoin="round"/>
<path d="M13.2855 4.68534C13.4631 4.68534 13.607 4.54143 13.607 4.36391C13.607 4.18639 13.4631 4.04248 13.2855 4.04248" stroke="white" stroke-linecap="round" stroke-linejoin="round"/>
<path d="M1.10352 4.41192C1.10352 2.58488 2.58462 1.10376 4.41168 1.10376H13.2335C15.0605 1.10376 16.5416 2.58488 16.5416 4.41192V13.2337C16.5416 15.0607 15.0605 16.5418 13.2335 16.5418H4.41168C2.58462 16.5418 1.10352 15.0607 1.10352 13.2337V4.41192Z" stroke="white" stroke-linecap="round" stroke-linejoin="round"/>
<path d="M8.82264 12.1013C10.6333 12.1013 12.1012 10.6335 12.1012 8.82276C12.1012 7.01206 10.6333 5.54419 8.82264 5.54419C7.01193 5.54419 5.54407 7.01206 5.54407 8.82276C5.54407 10.6335 7.01193 12.1013 8.82264 12.1013Z" stroke="white" stroke-linecap="round" stroke-linejoin="round"/>
</g>
<defs>
<clipPath id="clip0_1222_45967">
<rect width="18" height="18" fill="white"/>
</clipPath>
</defs>
</svg>
