<svg width="18" height="18" viewBox="0 0 18 18" fill="none" xmlns="http://www.w3.org/2000/svg">
<g clip-path="url(#clip0_1222_46029)">
<path d="M4.59466 2.2718C4.59812 2.71637 4.42653 3.14445 4.11695 3.46355C3.80739 3.78264 3.3847 3.96713 2.94023 3.97714C2.49668 3.96087 2.07634 3.77482 1.76606 3.45743C1.45579 3.14005 1.2793 2.71561 1.27307 2.2718C1.29235 1.83941 1.47532 1.43052 1.78491 1.12803C2.09448 0.825539 2.50751 0.652083 2.94023 0.642822C3.3717 0.652256 3.78326 0.826142 4.09077 1.12893C4.39829 1.43172 4.57855 1.84054 4.59466 2.2718ZM1.45124 7.00603C1.45124 6.0261 2.07484 6.17881 2.94023 6.17881C3.80563 6.17881 4.4165 6.0261 4.4165 7.00603V16.5508C4.4165 17.5435 3.7929 17.3399 2.94023 17.3399C2.08757 17.3399 1.45124 17.5435 1.45124 16.5508V7.00603Z" stroke="white" stroke-linecap="round" stroke-linejoin="round"/>
<path d="M6.98718 7.00628C6.98718 6.45904 7.1908 6.25542 7.50896 6.19179C7.82713 6.12815 8.92159 6.19179 9.30338 6.19179C9.68518 6.19179 9.83789 6.81537 9.82517 7.28625C10.1517 6.84795 10.5853 6.50078 11.0845 6.27796C11.5836 6.05513 12.1315 5.96411 12.6759 6.01361C13.2104 5.98093 13.7459 6.06108 14.2475 6.24884C14.7489 6.43659 15.2055 6.72776 15.5871 7.10344C15.9688 7.47911 16.2671 7.93087 16.4628 8.42938C16.6584 8.92789 16.747 9.46199 16.7229 9.99698V16.5129C16.7229 17.5056 16.112 17.3019 15.2466 17.3019C14.3812 17.3019 13.7703 17.5056 13.7703 16.5129V11.4223C13.7927 11.1603 13.7585 10.8966 13.6699 10.649C13.5813 10.4014 13.4404 10.1758 13.257 9.9875C13.0735 9.79917 12.8516 9.65253 12.6064 9.55754C12.3612 9.46257 12.0984 9.42145 11.8359 9.43702C11.5747 9.43039 11.315 9.47932 11.074 9.5806C10.8331 9.68186 10.6164 9.83316 10.4383 10.0245C10.2603 10.2158 10.1249 10.4427 10.0411 10.6903C9.95735 10.9378 9.92712 11.2004 9.95244 11.4605V16.5511C9.95244 17.5438 9.32884 17.3401 8.46344 17.3401C7.59805 17.3401 6.98718 17.5438 6.98718 16.5511V7.00628Z" stroke="white" stroke-linecap="round" stroke-linejoin="round"/>
</g>
<defs>
<clipPath id="clip0_1222_46029">
<rect width="18" height="18" fill="white"/>
</clipPath>
</defs>
</svg>
