<svg width="18" height="18" viewBox="0 0 18 18" fill="none" xmlns="http://www.w3.org/2000/svg">
<path fill-rule="evenodd" clip-rule="evenodd" d="M16.0393 0.385481C16.8103 0.593122 17.4182 1.20094 17.6257 1.97204C18.0113 3.38048 17.9965 6.31629 17.9965 6.31629C17.9965 6.31629 17.9965 9.23713 17.6259 10.6457C17.4182 11.4167 16.8104 12.0246 16.0393 12.2321C14.6307 12.6029 8.99654 12.6029 8.99654 12.6029C8.99654 12.6029 3.37706 12.6029 1.95379 12.2174C1.18269 12.0098 0.574872 11.4018 0.367232 10.6309C-0.00341797 9.23713 -0.00341797 6.30146 -0.00341797 6.30146C-0.00341797 6.30146 -0.00341797 3.38048 0.367232 1.97204C0.574735 1.20108 1.19752 0.57829 1.95365 0.370787C3.36223 0 8.99641 0 8.99641 0C8.99641 0 14.6307 0 16.0393 0.385481ZM11.8879 6.30154L7.20264 9.00006V3.60303L11.8879 6.30154Z" fill="white"/>
</svg>
